<?xml version="1.0" encoding="UTF-8"?>
<svg version="1.1" viewBox="550 220 900 600" width="680" height="400" xmlns="http://www.w3.org/2000/svg">
<path transform="translate(0)" d="m0 0h1884v1028h-1884z" fill="#FEFEFE"/>
<path transform="translate(797,291)" d="m0 0 4 1 14 14 8 7 7 7 8 7 15 14 12 11 10 9 7 7 8 7 8 8 11 9 3 3-1 4-10 8-13 13-8 7-12 11-15 14-8 7-9 9-8 7-16 15-10 9-3 3-4-2-8-8-8-7-9-9-8-7-17-16-5-3-2 4-8 8-11 9-11 11-11 9-11 11-4-1-10-9-7-7-16-14-5-5-16-15-24-22-14-13-8-7-8-8-2-5 7-8 13-12 12-11 10-9 9-9 11-9 12-12 8-7 5-5h2v-2l8-7 13-12 4-1 17 17 8 7 13 12 12 11 4 3 4-1 6-7 8-7 15-14 14-13 8-7z" fill="#00858E"/>
<path transform="translate(1126,325)" d="m0 0h40l21 3 14 5 10 9 5 8 2 6 1 10v7l-3 9-6 9-11 8-4 1v2l9 2 10 7 6 8 3 9v18l-4 12-7 9-9 8-8 4-12 4-16 2h-95v-158l6-1z" fill="#009785"/>
<path transform="translate(797,291)" d="m0 0 4 1 14 14 8 7 7 7 8 7 15 14 12 11 10 9 7 7 8 7 8 8 11 9 3 3-1 4-10 8-13 13-8 7-12 11-15 14-8 7-9 9-8 7-16 15-10 9-3 3-4-2-8-8-8-7-9-9-8-7-17-16-5-3v2h-2v-2h-2l-10-10-3-2-5-1 2-3-1-4-17-17-11-9-6-5-1-4 15-13 14-14 10-6 8 8-11 7-6 7-3 7v12l6 12 7 6 10 4h15l8-2 4 2v4h2v5l11 9 12 12 8 7 3 3 4-2 14-13h2v-2l8-7 7-7 8-7 12-11 15-14 5-4-1-4-16-15-12-11-13-12-8-7-8-8-8-7-7-6-4 2-17 16-8 8-8 7-4-2-10-9-7-5 5-7 8-7 8-8 8-7 9-9 11-9z" fill="#0058B5"/>
<path transform="translate(1126,325)" d="m0 0h40l21 3 14 5 10 9 5 8 2 6 1 10v7l-3 9-2 2-6-2-5 1-12 4h-2l-1-3 4-4 2-10-3-5-16-2v15l-6 7-4 2-27 1-1 1v16l-1 13h24l11 3 5 3 4 7v8l-3 6-7 6-5 1h-50l-1-1-1-35-1-1-1-52-6 1-3 21-2 4-5-2-5-4-1-6-4-2-4-13-5-20-1-1-1 2-1 111h-1v-127l6-1z" fill="#009784"/>
<path transform="translate(951,325)" d="m0 0h70l35 1 1 1v14l-1 18-44 1-1 125h-43l-1-1-1-124-45-1-1-1v-32z" fill="#009785"/>
<path transform="translate(1324,326)" d="m0 0h43l1 29 24 1 1 1v30l-2 4h-23v52l2 5 6 2 16 1 1 4v28l-1 2h-30l-11-3-12-6-6-5-6-9-3-12z" fill="#009784"/>
<path transform="translate(797,327)" d="m0 0 5 2v2l4 2 17 16 15 14 8 7 16 15 11 10-1 4-8 7-17 16-13 12-8 7-7 7h-2v2l-8 7-10 9-4-2-7-7-8-7-9-9-9-7 1-4 13-12 7-6 5-6 8-7h2l-2-4-8-7-7-7-8-7-10-9-2-4 7-7 8-7 11-11 8-7z" fill="#FEFEFE"/>
<path transform="translate(684,328)" d="m0 0 4 2 12 12 11 9 10 10v3l-9 6-17 17-10 8v4l4 2 11 10 8 7 13 13-1 4-24 22-8 7-2 3-4-1-11-11-8-7-10-9-9-9-8-7-15-14-12-10 2-4 32-30 8-8 8-7 10-9 13-12z" fill="#FEFEFE"/>
<path transform="translate(1283,311)" d="m0 0 1 3-8 16-3 12v40l3 33v20l-3 18-4 10-8 10-8 7-16 8-19 5-15 2h-19l3-2 13-4 16-7 8-6 5-5 4-5 4-8 4-16v-17l-7-49v-22l3-12 4-8 9-10 12-7z" fill="#906127"/>
<path transform="translate(1311,311)" d="m0 0 3 1-3 10-2 17v15l3 31 3 27v31l-3 15-8 16-9 10-14 9-13 5-15 3-9 1h-32v-2l24-7 16-8 9-6 7-7 9-14 4-11 3-19v-16l-2-24-3-26v-22l3-11 4-6 8-7 12-4z" fill="#0058B5"/>
<path transform="translate(1115,359)" d="m0 0h47l9 3 4 5v11l-6 7-4 2-27 1-1 1v16l-1 13h24l11 3 5 3 4 7v8l-3 6-7 6-5 1h-50l-1-1v-91z" fill="#FEFEFE"/>
<path transform="translate(1074,337)" d="m0 0 1 4 2 1 7 28 1 5 5 2 2 7 3 1v2l5 1 3-17 2-7 6-1 1 2 1 63-1 16-1 3h-2l-1 3-5-1v2h-2l-3 9-5 3-5 6 1 7 1 5 3 2-21 1v-30l1-111z" fill="#008876"/>
<path transform="translate(1095,550)" d="m0 0h31l14 3 8 6 6 7 3 8 1 12-3 10-6 9-11 7-7 2-10 1h-26z" fill="#020407"/>
<path transform="translate(938,550)" d="m0 0h33l12 2 7 7 1 3v9l-3 6-4 3-1 3 4 2 4 4 1 2v12l-6 8-8 3-38 1-2-1z" fill="#030407"/>
<path transform="translate(1e3 550)" d="m0 0h32l11 2 8 7 3 7v9l-4 8-5 4-5 2 6 11 8 12v3h-17l-3-1-10-18-4-6-3-1v25l-1 1h-16z" fill="#020407"/>
<path transform="translate(806,550)" d="m0 0h17l8 11 13 19 4 5v2h2v-37h18v22l-1 43-17-1-11-15-14-20-2-3-1 39h-16l-1-6v-58z" fill="#020306"/>
<path transform="translate(740,368)" d="m0 0 9 1 10 4 10 9 3 7 1 8-2 11-6 9-8 6-8 3h-15l-10-4-8-7-6-12v-12l5-10 9-8 9-4z" fill="#FEFEFE"/>
<path transform="translate(1194,549)" d="m0 0h10l12 3 8 6 6 7 1 6-19-1-6-4-3-1h-9l-8 4-4 8v10l4 8 6 4h14l6-3 3-3 1-3h-20l-1-12 28-1h8l1 1v15l-3 7-7 8-10 5-9 2h-9l-11-3-8-5-7-8-4-10v-15l4-9 7-8 5-4 8-3z" fill="#020408"/>
<path transform="translate(970,363)" d="m0 0 5 1 3 4 2 7 2 5 1 9 1 6 2 7 4 1 2 1 2 7 1 16 1 2 1 12v12l-2 11-6 7 5 6v2l4 2v3h-29l-1-1-1-61 1-52z" fill="#008876"/>
<path transform="translate(653,550)" d="m0 0h20l3 5 15 40 7 19-1 1h-17l-2-3-2-8-26-1-3 11-1 1h-17l1-6 16-41 6-17z" fill="#020408"/>
<path transform="translate(1286,250)" d="m0 0h8l10 3 6 4 6 7 4 11-1 8-5 10h-2v2l-9 6-8 3h-10l-10-4-9-8-4-7-1-4v-9l4-9 5-6 8-5z" fill="#0056B5"/>
<path transform="translate(1175,363)" d="m0 0h11l6 2 3 5-3 12-3 3v2l11-4h3l1-2 9 1 1 4-6 7-11 7-7 1-3-1-2 4-4-1v-3l4-3 1-4-4-1v-2h-5l-4 3-8 1-13 2-4 1v10h3v2h7l11 2 12-1 6 3h2l3 6 6 5v5l3 1-2 6-2 1v6h-2v3l-4 1h-4v2l-6 1-4 4-9 1-2-2 1-2 6-3 5-6 1-3v-8l-4-7-10-4-5-1-24-1v-29l2-2 27-1 6-4 3-4z" fill="#087"/>
<path transform="translate(752,550)" d="m0 0h43v13l-25 1-1 11 23 1v12l-22 1v12l25 1 1 12-1 1h-42l-1-1z" fill="#020306"/>
<path transform="translate(1311,311)" d="m0 0 3 1-3 10-2 17v25l-11 12-2 10-2 17-2 3-5 1-2 5h-1l-2-24-3-26v-22l3-11 4-6 8-7 12-4z" fill="#087"/>
<path transform="translate(1242,550)" d="m0 0h42l1 3-1 10-25 1-1 11 23 1v12l-22 1v12l25 1 1 12-1 1h-42z" fill="#020407"/>
<path transform="translate(875,550)" d="m0 0h54v13h-18v51l-17 1-1-52h-18z" fill="#030305"/>
<path transform="translate(1340,550)" d="m0 0h53v12l-1 1-15 1-1 50-1 1h-15l-1-1-1-50-18-1z" fill="#020307"/>
<path transform="translate(573,550)" d="m0 0h52v13l-3 1h-15l-1 51h-16l-1-1v-43l-1-7-15-1z" fill="#030407"/>
<path transform="translate(705,550)" d="m0 0h17v52h23v12l-1 1h-38l-1-3z" fill="#02070F"/>
<path transform="translate(737,273)" d="m0 0h9l8 4 5 6 3 7-1 8-4 6-8 6-4 1h-9l-8-4-6-8-1-3v-8l4-8 5-4z" fill="#00868E"/>
<path transform="translate(1066,550)" d="m0 0h18v64l-1 1h-16l-1-1z" fill="#020811"/>
<path transform="translate(1316,550)" d="m0 0h17v64l-1 1h-16z" fill="#020306"/>
<path transform="translate(1115,638)" d="m0 0h8l7 3 1 1 2-3h3l1 9v25l-4 8-5 3-4 1h-8l-6-3-4-5-1-4 4 2 5 4 2 1h10l5-5 2-7v-4l-7 6-3 1h-9l-9-8-2-5v-7l4-8 5-4z" fill="#0156A7"/>
<path transform="translate(1197,404)" d="m0 0 6 1 9 4 6 7 4 8 1 4v18l-4 12-7 9-9 8-4-1 1-5 1-3h2l1-4 1-2h2v-3h2v-2h2v-8l-1-7-4-2-1-7h-2v-7l-3-11-3-3-2-5z" fill="#087"/>
<path transform="translate(1327,327)" d="m0 0h38l1 5-1 10v2h-2l-1 3h-3v-9l-3-3-13-2-8-2-3 1-2 3 2 3 4 9v2h2l3 9 4 2-3 3-3 9-1 7-3 3-3 16h-5l-1-19v-51z" fill="#008876"/>
<path transform="translate(1113,563)" d="m0 0 14 1 8 4 3 3 2 5v12l-3 6-5 4-5 2h-15v-36z" fill="#FEFEFE"/>
<path transform="translate(1258,453)" d="m0 0h3l-3 13-2 4h2l-2 7-8 6-11 5-19 5-15 2h-19l3-2 13-4 16-7 8-6 6-2v4h-2l2 2 5-2 9-6 9-11z" fill="#070607"/>
<path transform="translate(1119,642)" d="m0 0 9 2 4 4v12l-5 5-5 3-7-1-5-5-3-7 2-7 5-5z" fill="#FEFEFE"/>
<path transform="translate(704,643)" d="m0 0h11l5 3 3 7-1 7-4 5-7 3-7-2-5-5-2-8 3-6z" fill="#FEFEFE"/>
<path transform="translate(1317,629)" d="m0 0h7l9 4 6 5 1 5-4-2-9-6-9-1-8 4-4 5-1 2v10l3 6 7 5 7 1 8-3 8-7h2l-2 6-8 6-5 2h-10l-9-5-5-7-2-6 1-9 3-6 8-7z" fill="#014C9C"/>
<path transform="translate(642,629)" d="m0 0h7l9 4 6 5 1 5-5-2v-2l-4-2-8-3-9 1-7 6-2 4v9l4 8 6 4 8 1 10-5 6-5v5l-7 6-7 3h-9l-8-4-6-7-3-8 1-9 6-8 5-4z" fill="#014D9D"/>
<path transform="translate(706,638)" d="m0 0h8l8 4 4 5 1 3v9l-4 6-6 5-2 1h-10l-8-6-4-8v-6l3-6 5-5zm-2 5-6 7-1 5 3 8 5 4 6 1 7-3 4-5 1-7-3-7-5-3z" fill="#0153A5"/>
<path transform="translate(1329,445)" d="m0 0h2l2 4-1 4h2l2 3 2 1-1 2 2 5 3 1 5 5 8 6-1 5 5 1v1h-6l-14-7-6-5-6-9-1-3v-9l1 3h3z" fill="#008879"/>
<path transform="translate(870,639)" d="m0 0 4 1v13l2 10 4 3 5 1 7-3 1-2 1-23 5 1v27l-4 2-8 2h-8l-7-5-3-9v-17z" fill="#013D7C"/>
<path transform="translate(1305,354)" d="m0 0h4v10l-11 12-2 10-2 17-2 3-5 1-2 5h-1v-15l5-5 3-4 2-15 4-10 3-1 2-6z" fill="#00848F"/>
<path transform="translate(1057,638)" d="m0 0h8l5 2 4 8 1 6v10l-1 6h-4l-1-21-3-5-2-1h-8l-5 2-1 4-1 21h-4v-31l6 1z" fill="#013A76"/>
<path transform="translate(824,638)" d="m0 0 10 1 5 4 1 5-5-2-5-3h-6l-3 2 1 4 5 3 10 4 3 3-1 7-6 5h-9l-7-4-1-6 4 2 4 3h8l4-4-4-4-10-3-6-5 1-7 4-4z" fill="#014387"/>
<path transform="translate(1110,451)" d="m0 0h2v2h53l-3 4-12 3h-32l-5-2v-2h-3z" fill="#008876"/>
<path transform="translate(771,638)" d="m0 0 9 1 4 5 2 8v17l-5 1v-18l-2-7-3-2h-9l-4 2-1 2-1 23h-4v-30l9-1z" fill="#0150A8"/>
<path transform="translate(1019,563)" d="m0 0 17 1 2 2v10l-2 2-4 1h-13z" fill="#FEFEFE"/>
<path transform="translate(955,588)" d="m0 0h18l2 3-1 9-7 2h-12l-1-1v-12z" fill="#FEFEFE"/>
<path transform="translate(1136,655)" d="m0 0h1v18l-4 8-5 3-4 1h-8l-6-3-4-5-1-4 4 2 5 4 2 1h10l5-5 2-7v-4l-7 6h-3l1-4 6-4 3-5h2z" fill="#022A56"/>
<path transform="translate(969,632)" d="m0 0h2l1 5h-2v2l4-1 6 2v3h-8v21l8 4v2h-7l-5-3-1-4v-16l1-4h-5l-1-3 4-1 1-6z" fill="#020408"/>
<path transform="translate(955,563)" d="m0 0 17 1 1 1v10l-16 1-3-1v-11z" fill="#FEFEFE"/>
<path transform="translate(1207,630)" d="m0 0h4l1 36 14 1v3l-6 1-12-1-1-1z" fill="#01488D"/>
<path transform="translate(1254,630)" d="m0 0h4l1 36 2 1h13v3l-8 1-11-1-1-1z" fill="#021B39"/>
<path transform="translate(662,569)" d="m0 0h2l7 18v4h-16l3-9z" fill="#FEFEFE"/>
<path transform="translate(1200,337)" d="m0 0h6l8 9 2 4v8l-3 3-4-2-3-9-4-8z" fill="#008977"/>
<path transform="translate(930,628)" d="m0 0h4l1 30-1 12h-4z" fill="#020D1A"/>
<path transform="translate(1109,641)" d="m0 0 1 4-2 10 3 7 4 4 7 1 1 4h-9l-9-8-2-5v-7l4-8z" fill="#01326A"/>
<path transform="translate(642,629)" d="m0 0h7l9 4 6 5 1 5-5-2v-2l-4-2-8-3-9 1-6 4-2-1 1-4 6-4z" fill="#014B95"/>
<path transform="translate(1317,629)" d="m0 0h7l9 4 6 5 1 5-4-2-9-6-9-1-7 3-2-2v-3z" fill="#0153A2"/>
<path transform="translate(1324,326)" d="m0 0h42l-1 3v-2l-38 1v52l-1 5h-1z" fill="#009885"/>
<path transform="translate(724,647)" d="m0 0h2l1 3v9l-4 6-6 5-5 1-5-1-1-3 9-1 5-5 2-4-1-9z" fill="#020F1C"/>
<path transform="translate(1009,639)" d="m0 0h4v31h-4z" fill="#0156B7"/>
<path transform="translate(1069,644)" d="m0 0h2v2h2l2 8v10l-1 6h-4l-1-21-1-4z" fill="#020E1C"/>
<path transform="translate(870,639)" d="m0 0 4 1v13l1 9-4 2-2-7v-17z" fill="#02162C"/>
<path transform="translate(969,632)" d="m0 0h2l1 5h-2v2l4-1 6 2v3h-8l-3 3-1-3h-5l-1-3 4-1 1-6z" fill="#013E6E"/>
<path transform="translate(1207,630)" d="m0 0h4v27l-1 6-2-1z" fill="#014EA6"/>
<path transform="translate(781,644)" d="m0 0 1 2 3 1 1 5v17l-5 1v-18l-1-7z" fill="#0156A4"/>
<path transform="translate(1133,639)" d="m0 0h3l1 16-2 3-2-1-1 2-1-11-3-4 4-1z" fill="#014085"/>
<path transform="translate(771,638)" d="m0 0 9 1 4 5v2l-6-2-2-1h-9l-6 1-2-2-2 1v-3l9-1z" fill="#013874"/>
<path transform="translate(1057,638)" d="m0 0h8l5 2 3 6h-2v-2l-4 1-3-2h-8l-6 2 1-5z" fill="#01478D"/>
<path transform="translate(630,636)" d="m0 0 3 1-1 4-2 4-2 10-2 3-2-6 1-9z" fill="#02244C"/>
<path transform="translate(816,661)" d="m0 0 4 2 4 3 6 1v2l6-3 2 1-5 4h-9l-7-4z" fill="#014B97"/>
<path transform="translate(1136,655)" d="m0 0h1v13l-3-1-1-3-7 6h-3l1-4 6-4 3-5h2z" fill="#021F42"/>
<path transform="translate(824,638)" d="m0 0 10 1 5 4 1 5-5-2-5-3h-7l-2-4z" fill="#0157AC"/>
<path transform="translate(921,326)" d="m0 0 50 1-4 3-1-1h-5l-2 1-4-1h-28l-3 3-3-3z" fill="#008776"/>
<path transform="translate(1107,660)" d="m0 0 4 2 4 4 7 1 1 4h-9l-8-7z" fill="#013B7B"/>
<path transform="translate(1338,657)" d="m0 0h2l-2 6-8 6-7 1-1-3 8-3z" fill="#021F3D"/>
<path transform="translate(1255,658)" d="m0 0h1v7l5 2h13v3l-8 1-11-1-1-2z" fill="#0157AF"/>
<path transform="translate(1111,327)" d="m0 0h49v1l-17 1-4 1v-2l-20 1-2-1v2l-4-1z" fill="#008876"/>
<path transform="translate(694,659)" d="m0 0h5l3 5 5 4v2h5v1h-7l-8-6z" fill="#014F9F"/>
<path transform="translate(1012,644)" d="m0 0h1v26h-4l1-3v-19z" fill="#020409"/>
<path transform="translate(872,661)" d="m0 0 4 2 4 3 5 2-1 3-7-1-5-4z" fill="#014792"/>
<path transform="translate(663,657)" d="m0 0h1v5l-6 5-9 1 12-9z" fill="#021424"/>
<path transform="translate(968,659)" d="m0 0h2v5l9 3 1 3h-7l-5-3z" fill="#013F83"/>
<path transform="translate(1324,326)" d="m0 0h42l-1 3v-2l-38 1h-3z" fill="#009288"/>
<path transform="translate(1257,649)" d="m0 0h1v16h-2l-2 3v-13h2v-5z" fill="#030203"/>
<path transform="translate(870,639)" d="m0 0 4 1v12h-1l-1-6-1 8h-1l-1-14z" fill="#015999"/>
<path transform="translate(1307,634)" d="m0 0 4 1-2 4-5 8-2-1 1-8z" fill="#02142A"/>
<path transform="translate(1054,326)" d="m0 0h2l-1 6-4 1-4-2v-3l-4-1z" fill="#00877A"/>
<path transform="translate(1222,428)" d="m0 0h1v18l-2 7-2-3 2-11z" fill="#009484"/>
<path transform="translate(1073,654)" d="m0 0h2v10l-1 6-3-1v-3l1-11z" fill="#013876"/>
<path transform="translate(820,640)" d="m0 0h3l-1 4-3 5 1 3-4-2 1-7z" fill="#02192B"/>
<path transform="translate(1105,673)" d="m0 0 4 2 5 4 4 3-2 1-8-3-3-5z" fill="#021021"/>
<path transform="translate(1207,638)" d="m0 0h1l1 24 1-5h1v7l-2 1-2 3z" fill="#030203"/>
<path transform="translate(896,640)" d="m0 0h3v18l-3-1z" fill="#005BB2"/>
<path transform="translate(1330,634)" d="m0 0h5l5 6v3l-4-2-5-4z" fill="#014791"/>
<path transform="translate(966,638)" d="m0 0 6 3-2 5-2-1v-2h-5l-1-3z" fill="#014894"/>
<path transform="translate(836,660)" d="m0 0h4l-1 6-6 3h-3v-2l6-4z" fill="#02152C"/>
<path transform="translate(1338,657)" d="m0 0h2l-2 6-3 3-3-1v-3z" fill="#013060"/>
<path transform="translate(628,653)" d="m0 0 2 1 3 8-4 1-2-3z" fill="#013F87"/>
<path transform="translate(897,648)" d="m0 0h1l1 10v9l-3 1z" fill="#02142A"/>
<path transform="translate(1136,655)" d="m0 0h1v13l-3-1v-5l1-3h-2v-2h2z" fill="#020A14"/>
<path transform="translate(970,644)" d="m0 0 2 2-2 11h-1l-2-6 1-6z" fill="#022141"/>
<path transform="translate(969,632)" d="m0 0h2l1 5h-2v3l-4-2 1-5z" fill="#021D34"/>
<path transform="translate(1053,352)" d="m0 0h2v7l-12-1v-1l7-1z" fill="#008588"/>
<path transform="translate(1270,667)" d="m0 0h4v3l-8 1-3-1v-2z" fill="#014D84"/>
<path transform="translate(818,648)" d="m0 0 4 1 5 4-2 2-4-1-2-2z" fill="#01488E"/>
<path transform="translate(694,659)" d="m0 0h5l3 6h-3l-3-1z" fill="#021730"/>
<path transform="translate(1057,638)" d="m0 0 1 2-2 3-6 2 1-5z" fill="#013A68"/>
<path transform="translate(1009,639)" d="m0 0h4l-1 7-3 1z" fill="#013D81"/>
<path transform="translate(1009,628)" d="m0 0h5v4l-4 1-2-4z" fill="#020E1D"/>
</svg>
