<svg id="visual" viewBox="0 0 960 300" width="960" height="300" xmlns="http://www.w3.org/2000/svg" xmlns:xlink="http://www.w3.org/1999/xlink" version="1.1"><path d="M0 235L22.8 229.8C45.7 224.7 91.3 214.3 137 209.3C182.7 204.3 228.3 204.7 274 205.2C319.7 205.7 365.3 206.3 411.2 212.8C457 219.3 503 231.7 548.8 232.8C594.7 234 640.3 224 686 217C731.7 210 777.3 206 823 205C868.7 204 914.3 206 937.2 207L960 208L960 301L937.2 301C914.3 301 868.7 301 823 301C777.3 301 731.7 301 686 301C640.3 301 594.7 301 548.8 301C503 301 457 301 411.2 301C365.3 301 319.7 301 274 301C228.3 301 182.7 301 137 301C91.3 301 45.7 301 22.8 301L0 301Z" fill="#d269fa"></path><path d="M0 257L22.8 254.5C45.7 252 91.3 247 137 245.7C182.7 244.3 228.3 246.7 274 250.3C319.7 254 365.3 259 411.2 260.2C457 261.3 503 258.7 548.8 255.8C594.7 253 640.3 250 686 251.3C731.7 252.7 777.3 258.3 823 260.8C868.7 263.3 914.3 262.7 937.2 262.3L960 262L960 301L937.2 301C914.3 301 868.7 301 823 301C777.3 301 731.7 301 686 301C640.3 301 594.7 301 548.8 301C503 301 457 301 411.2 301C365.3 301 319.7 301 274 301C228.3 301 182.7 301 137 301C91.3 301 45.7 301 22.8 301L0 301Z" fill="#a847e0"></path><path d="M0 259L22.8 261.8C45.7 264.7 91.3 270.3 137 274.2C182.7 278 228.3 280 274 280.5C319.7 281 365.3 280 411.2 276.7C457 273.3 503 267.7 548.8 263.7C594.7 259.7 640.3 257.3 686 258C731.7 258.7 777.3 262.3 823 263.7C868.7 265 914.3 264 937.2 263.5L960 263L960 301L937.2 301C914.3 301 868.7 301 823 301C777.3 301 731.7 301 686 301C640.3 301 594.7 301 548.8 301C503 301 457 301 411.2 301C365.3 301 319.7 301 274 301C228.3 301 182.7 301 137 301C91.3 301 45.7 301 22.8 301L0 301Z" fill="#7d24c7"></path></svg>